%FSLAX25Y25*%
%MOIN*%
G70*
G01*
G75*
%ADD10R,0.04500X0.06000*%
%ADD11C,0.01969*%
%ADD12C,0.03937*%
%ADD13C,0.01772*%
%ADD14C,0.08661*%
%ADD15C,0.07480*%
%ADD16C,0.06000*%
%ADD17R,0.06000X0.06000*%
%ADD18C,0.05906*%
%ADD19R,0.05906X0.05906*%
%ADD20R,0.06000X0.06000*%
%ADD21C,0.05000*%
%ADD22C,0.00394*%
%ADD23C,0.00787*%
D22*
X73026Y55000D02*
G03*
X73026Y55000I-3543J0D01*
G01*
Y45000D02*
G03*
X73026Y45000I-3543J0D01*
G01*
Y35000D02*
G03*
X73026Y35000I-3543J0D01*
G01*
Y25000D02*
G03*
X73026Y25000I-3543J0D01*
G01*
Y15000D02*
G03*
X73026Y15000I-3543J0D01*
G01*
Y5000D02*
G03*
X73026Y5000I-3543J0D01*
G01*
X63026Y15000D02*
G03*
X63026Y15000I-3543J0D01*
G01*
Y5000D02*
G03*
X63026Y5000I-3543J0D01*
G01*
Y25000D02*
G03*
X63026Y25000I-3543J0D01*
G01*
Y35000D02*
G03*
X63026Y35000I-3543J0D01*
G01*
Y45000D02*
G03*
X63026Y45000I-3543J0D01*
G01*
Y55000D02*
G03*
X63026Y55000I-3543J0D01*
G01*
Y65000D02*
G03*
X63026Y65000I-3543J0D01*
G01*
X73026D02*
G03*
X73026Y65000I-3543J0D01*
G01*
Y75000D02*
G03*
X73026Y75000I-3543J0D01*
G01*
X84321Y28276D02*
X101644D01*
X84321D02*
Y37725D01*
X101644D01*
Y28276D02*
Y37725D01*
X84321Y60276D02*
X101644D01*
X84321D02*
Y69725D01*
X101644D01*
Y60276D02*
Y69725D01*
X3321Y28276D02*
Y37725D01*
Y28276D02*
X20644D01*
Y37725D01*
X3321D02*
X20644D01*
X3321Y40276D02*
Y49725D01*
Y40276D02*
X20644D01*
Y49725D01*
X3321D02*
X20644D01*
X56483Y72000D02*
X56983D01*
X56483D02*
Y72500D01*
Y77500D02*
Y78000D01*
X62983Y77500D02*
Y78000D01*
X56483D02*
X62983D01*
X56983Y72000D02*
X62983D01*
Y72500D01*
Y77500D01*
X56483Y72500D02*
Y77500D01*
X84321Y11276D02*
X101644D01*
X84321D02*
Y20724D01*
X101644D01*
Y11276D02*
Y20724D01*
X84321Y70276D02*
X101644D01*
X84321D02*
Y79725D01*
X101644D01*
Y70276D02*
Y79725D01*
X84321Y1276D02*
X101644D01*
X84321D02*
Y10724D01*
X101644D01*
Y1276D02*
Y10724D01*
D23*
X109984Y49999D02*
G03*
X123982Y49999I6999J-9999D01*
G01*
X109984Y22499D02*
G03*
X123982Y22499I6999J-9999D01*
G01*
X109984Y77499D02*
G03*
X123982Y77499I6999J-9999D01*
G01*
X155853Y79291D02*
X177613D01*
Y40709D02*
Y79291D01*
X155853Y40709D02*
X177613D01*
X155853D02*
Y79291D01*
Y39291D02*
X177613D01*
Y709D02*
Y39291D01*
X155853Y709D02*
X177613D01*
X155853D02*
Y39291D01*
X1235Y25787D02*
X41983D01*
X42770Y4232D02*
Y25787D01*
X41983D02*
X42770D01*
X1235Y4232D02*
X42770D01*
X1235D02*
Y25787D01*
X54483Y0D02*
Y80000D01*
X74483D01*
Y0D02*
Y80000D01*
X54483Y0D02*
X74483D01*
X109984Y49999D02*
X123982D01*
X109984Y22499D02*
X123982D01*
X109984Y77499D02*
X123982D01*
X76983Y14000D02*
Y17149D01*
X78557D01*
X79082Y16624D01*
Y15574D01*
X78557Y15050D01*
X76983D01*
X78032D02*
X79082Y14000D01*
X82230Y17149D02*
X80131D01*
Y15574D01*
X81181Y16099D01*
X81705D01*
X82230Y15574D01*
Y14525D01*
X81705Y14000D01*
X80656D01*
X80131Y14525D01*
X76983Y73000D02*
Y76149D01*
X78557D01*
X79082Y75624D01*
Y74574D01*
X78557Y74050D01*
X76983D01*
X78032D02*
X79082Y73000D01*
X81705D02*
Y76149D01*
X80131Y74574D01*
X82230D01*
X76983Y4000D02*
Y7149D01*
X78557D01*
X79082Y6624D01*
Y5574D01*
X78557Y5050D01*
X76983D01*
X78032D02*
X79082Y4000D01*
X80131Y6624D02*
X80656Y7149D01*
X81705D01*
X82230Y6624D01*
Y6099D01*
X81705Y5574D01*
X81181D01*
X81705D01*
X82230Y5050D01*
Y4525D01*
X81705Y4000D01*
X80656D01*
X80131Y4525D01*
X76983Y31000D02*
Y34149D01*
X78557D01*
X79082Y33624D01*
Y32574D01*
X78557Y32050D01*
X76983D01*
X78032D02*
X79082Y31000D01*
X82230D02*
X80131D01*
X82230Y33099D01*
Y33624D01*
X81705Y34149D01*
X80656D01*
X80131Y33624D01*
X76983Y63000D02*
Y66149D01*
X78557D01*
X79082Y65624D01*
Y64574D01*
X78557Y64050D01*
X76983D01*
X78032D02*
X79082Y63000D01*
X80131D02*
X81181D01*
X80656D01*
Y66149D01*
X80131Y65624D01*
X92983Y25149D02*
Y22000D01*
X95082D01*
X98230Y25149D02*
X96131D01*
Y22000D01*
X98230D01*
X96131Y23574D02*
X97181D01*
X99280Y25149D02*
Y22000D01*
X100854D01*
X101379Y22525D01*
Y24624D01*
X100854Y25149D01*
X99280D01*
X102428Y24624D02*
X102953Y25149D01*
X104003D01*
X104527Y24624D01*
Y24099D01*
X104003Y23574D01*
X103478D01*
X104003D01*
X104527Y23050D01*
Y22525D01*
X104003Y22000D01*
X102953D01*
X102428Y22525D01*
X92983Y49149D02*
Y46000D01*
X95082D01*
X98230Y49149D02*
X96131D01*
Y46000D01*
X98230D01*
X96131Y47574D02*
X97181D01*
X99280Y49149D02*
Y46000D01*
X100854D01*
X101379Y46525D01*
Y48624D01*
X100854Y49149D01*
X99280D01*
X104527Y46000D02*
X102428D01*
X104527Y48099D01*
Y48624D01*
X104003Y49149D01*
X102953D01*
X102428Y48624D01*
X92983Y58149D02*
Y55000D01*
X95082D01*
X98230Y58149D02*
X96131D01*
Y55000D01*
X98230D01*
X96131Y56574D02*
X97181D01*
X99280Y58149D02*
Y55000D01*
X100854D01*
X101379Y55525D01*
Y57624D01*
X100854Y58149D01*
X99280D01*
X102428Y55000D02*
X103478D01*
X102953D01*
Y58149D01*
X102428Y57624D01*
X39082Y31149D02*
X38032D01*
X38557D01*
Y28525D01*
X38032Y28000D01*
X37507D01*
X36983Y28525D01*
X42230Y28000D02*
X40131D01*
X42230Y30099D01*
Y30624D01*
X41706Y31149D01*
X40656D01*
X40131Y30624D01*
X32099Y35124D02*
X31574Y35649D01*
X30525D01*
X30000Y35124D01*
Y33025D01*
X30525Y32500D01*
X31574D01*
X32099Y33025D01*
X35248Y32500D02*
X33149D01*
X35248Y34599D01*
Y35124D01*
X34723Y35649D01*
X33673D01*
X33149Y35124D01*
X32099Y45124D02*
X31574Y45649D01*
X30525D01*
X30000Y45124D01*
Y43025D01*
X30525Y42500D01*
X31574D01*
X32099Y43025D01*
X33149Y42500D02*
X34198D01*
X33673D01*
Y45649D01*
X33149Y45124D01*
X162704Y26679D02*
X162179Y27204D01*
X161129D01*
X160605Y26679D01*
Y26154D01*
X161129Y25629D01*
X162179D01*
X162704Y25105D01*
Y24580D01*
X162179Y24055D01*
X161129D01*
X160605Y24580D01*
X165852Y24055D02*
X163753D01*
X165852Y26154D01*
Y26679D01*
X165328Y27204D01*
X164278D01*
X163753Y26679D01*
X160605Y18150D02*
Y21298D01*
X162179D01*
X162704Y20774D01*
Y19724D01*
X162179Y19199D01*
X160605D01*
X161654D02*
X162704Y18150D01*
X165328D02*
X164278D01*
X163753Y18674D01*
Y19724D01*
X164278Y20249D01*
X165328D01*
X165852Y19724D01*
Y19199D01*
X163753D01*
X166902Y18150D02*
X168476D01*
X169001Y18674D01*
X168476Y19199D01*
X167427D01*
X166902Y19724D01*
X167427Y20249D01*
X169001D01*
X171625Y18150D02*
X170575D01*
X170051Y18674D01*
Y19724D01*
X170575Y20249D01*
X171625D01*
X172150Y19724D01*
Y19199D01*
X170051D01*
X173724Y20774D02*
Y20249D01*
X173199D01*
X174249D01*
X173724D01*
Y18674D01*
X174249Y18150D01*
X160605Y58150D02*
Y61298D01*
X162179D01*
X162704Y60773D01*
Y59724D01*
X162179Y59199D01*
X160605D01*
X164278Y60249D02*
X165328D01*
X165852Y59724D01*
Y58150D01*
X164278D01*
X163753Y58674D01*
X164278Y59199D01*
X165852D01*
X166902Y58150D02*
X167951D01*
X167427D01*
Y60249D01*
X166902D01*
X169526D02*
Y58150D01*
Y59199D01*
X170051Y59724D01*
X170575Y60249D01*
X171100D01*
X162704Y66679D02*
X162179Y67204D01*
X161129D01*
X160605Y66679D01*
Y66154D01*
X161129Y65630D01*
X162179D01*
X162704Y65105D01*
Y64580D01*
X162179Y64055D01*
X161129D01*
X160605Y64580D01*
X163753Y64055D02*
X164803D01*
X164278D01*
Y67204D01*
X163753Y66679D01*
X58000Y74000D02*
X58787D01*
X58394D01*
Y76361D01*
X58000Y75968D01*
X59968Y74000D02*
X60755D01*
X60361D01*
Y76361D01*
X59968Y75968D01*
X59074Y4000D02*
X57500D01*
X59074Y5574D01*
Y5968D01*
X58681Y6361D01*
X57894D01*
X57500Y5968D01*
X61436Y6361D02*
X59861D01*
Y5181D01*
X60649Y5574D01*
X61042D01*
X61436Y5181D01*
Y4394D01*
X61042Y4000D01*
X60255D01*
X59861Y4394D01*
X69074Y4000D02*
X67500D01*
X69074Y5574D01*
Y5968D01*
X68681Y6361D01*
X67894D01*
X67500Y5968D01*
X71436Y6361D02*
X70649Y5968D01*
X69861Y5181D01*
Y4394D01*
X70255Y4000D01*
X71042D01*
X71436Y4394D01*
Y4787D01*
X71042Y5181D01*
X69861D01*
X69074Y14000D02*
X67500D01*
X69074Y15574D01*
Y15968D01*
X68681Y16361D01*
X67894D01*
X67500Y15968D01*
X71042Y14000D02*
Y16361D01*
X69861Y15181D01*
X71436D01*
X59074Y14000D02*
X57500D01*
X59074Y15574D01*
Y15968D01*
X58681Y16361D01*
X57894D01*
X57500Y15968D01*
X59861D02*
X60255Y16361D01*
X61042D01*
X61436Y15968D01*
Y15574D01*
X61042Y15181D01*
X60649D01*
X61042D01*
X61436Y14787D01*
Y14394D01*
X61042Y14000D01*
X60255D01*
X59861Y14394D01*
X59074Y24000D02*
X57500D01*
X59074Y25574D01*
Y25968D01*
X58681Y26361D01*
X57894D01*
X57500Y25968D01*
X59861Y24000D02*
X60649D01*
X60255D01*
Y26361D01*
X59861Y25968D01*
X69074Y24000D02*
X67500D01*
X69074Y25574D01*
Y25968D01*
X68681Y26361D01*
X67894D01*
X67500Y25968D01*
X71436Y24000D02*
X69861D01*
X71436Y25574D01*
Y25968D01*
X71042Y26361D01*
X70255D01*
X69861Y25968D01*
X69074Y34000D02*
X67500D01*
X69074Y35574D01*
Y35968D01*
X68681Y36361D01*
X67894D01*
X67500Y35968D01*
X69861D02*
X70255Y36361D01*
X71042D01*
X71436Y35968D01*
Y34394D01*
X71042Y34000D01*
X70255D01*
X69861Y34394D01*
Y35968D01*
X57500Y34000D02*
X58287D01*
X57894D01*
Y36361D01*
X57500Y35968D01*
X59468Y34394D02*
X59861Y34000D01*
X60649D01*
X61042Y34394D01*
Y35968D01*
X60649Y36361D01*
X59861D01*
X59468Y35968D01*
Y35574D01*
X59861Y35181D01*
X61042D01*
X67500Y54000D02*
X68287D01*
X67894D01*
Y56361D01*
X67500Y55968D01*
X71042Y56361D02*
X70255Y55968D01*
X69468Y55181D01*
Y54394D01*
X69861Y54000D01*
X70649D01*
X71042Y54394D01*
Y54787D01*
X70649Y55181D01*
X69468D01*
X67500Y44000D02*
X68287D01*
X67894D01*
Y46361D01*
X67500Y45968D01*
X69468D02*
X69861Y46361D01*
X70649D01*
X71042Y45968D01*
Y45574D01*
X70649Y45181D01*
X71042Y44787D01*
Y44394D01*
X70649Y44000D01*
X69861D01*
X69468Y44394D01*
Y44787D01*
X69861Y45181D01*
X69468Y45574D01*
Y45968D01*
X69861Y45181D02*
X70649D01*
X57500Y44000D02*
X58287D01*
X57894D01*
Y46361D01*
X57500Y45968D01*
X59468Y46361D02*
X61042D01*
Y45968D01*
X59468Y44394D01*
Y44000D01*
X57500Y54000D02*
X58287D01*
X57894D01*
Y56361D01*
X57500Y55968D01*
X61042Y56361D02*
X59468D01*
Y55181D01*
X60255Y55574D01*
X60649D01*
X61042Y55181D01*
Y54394D01*
X60649Y54000D01*
X59861D01*
X59468Y54394D01*
X57500Y64000D02*
X58287D01*
X57894D01*
Y66361D01*
X57500Y65968D01*
X59468D02*
X59861Y66361D01*
X60649D01*
X61042Y65968D01*
Y65574D01*
X60649Y65181D01*
X60255D01*
X60649D01*
X61042Y64787D01*
Y64394D01*
X60649Y64000D01*
X59861D01*
X59468Y64394D01*
X67500Y64000D02*
X68287D01*
X67894D01*
Y66361D01*
X67500Y65968D01*
X70649Y64000D02*
Y66361D01*
X69468Y65181D01*
X71042D01*
X67500Y74000D02*
X68287D01*
X67894D01*
Y76361D01*
X67500Y75968D01*
X71042Y74000D02*
X69468D01*
X71042Y75574D01*
Y75968D01*
X70649Y76361D01*
X69861D01*
X69468Y75968D01*
M02*
