%FSLAX25Y25*%
%MOIN*%
G70*
G01*
G75*
%ADD10R,0.04500X0.06000*%
%ADD11C,0.01969*%
%ADD12C,0.03937*%
%ADD13C,0.01772*%
%ADD14C,0.08661*%
%ADD15C,0.07480*%
%ADD16C,0.06000*%
%ADD17R,0.06000X0.06000*%
%ADD18C,0.05906*%
%ADD19R,0.05906X0.05906*%
%ADD20R,0.06000X0.06000*%
%ADD21C,0.05000*%
D10*
X88983Y33000D02*
D03*
X96983D02*
D03*
X88983Y65000D02*
D03*
X96983D02*
D03*
X7983Y33000D02*
D03*
X15983D02*
D03*
X7983Y45000D02*
D03*
X15983D02*
D03*
X88983Y16000D02*
D03*
X96983D02*
D03*
X88983Y75000D02*
D03*
X96983D02*
D03*
X88983Y6000D02*
D03*
X96983D02*
D03*
D14*
X162061Y6221D02*
D03*
Y33780D02*
D03*
Y73780D02*
D03*
Y46220D02*
D03*
D15*
X171904Y11142D02*
D03*
Y28858D02*
D03*
Y68858D02*
D03*
Y51142D02*
D03*
D16*
X36983Y20000D02*
D03*
X26983D02*
D03*
X16983D02*
D03*
X6983D02*
D03*
X36983Y10000D02*
D03*
X26983D02*
D03*
X16983D02*
D03*
X116983Y45000D02*
D03*
Y17500D02*
D03*
Y72500D02*
D03*
D17*
X6983Y10000D02*
D03*
D18*
X136983Y5000D02*
D03*
X146983D02*
D03*
X136983Y15000D02*
D03*
X146983D02*
D03*
X136983Y25000D02*
D03*
X146983D02*
D03*
X136983Y35000D02*
D03*
X146983D02*
D03*
X136983Y45000D02*
D03*
X146983D02*
D03*
X136983Y55000D02*
D03*
X146983D02*
D03*
X136983Y65000D02*
D03*
X146983D02*
D03*
Y75000D02*
D03*
D19*
X136983D02*
D03*
D20*
X116983Y35000D02*
D03*
Y7500D02*
D03*
Y62500D02*
D03*
M02*
